<?xml version="1.0" standalone="no"?>
<!DOCTYPE svg PUBLIC "-//W3C//DTD SVG 20010904//EN"
 "http://www.w3.org/TR/2001/REC-SVG-20010904/DTD/svg10.dtd">
<svg version="1.0" xmlns="http://www.w3.org/2000/svg"
 width="512.000000pt" height="512.000000pt" viewBox="0 0 512.000000 512.000000"
 preserveAspectRatio="xMidYMid meet">

<g transform="translate(0.000000,512.000000) scale(0.100000,-0.100000)"
fill="#000000" stroke="none">
<path d="M683 4685 c-156 -42 -272 -147 -333 -298 l-25 -62 -3 -1495 c-2
-1051 1 -1511 9 -1548 36 -177 182 -325 361 -367 96 -22 3641 -22 3737 0 174
41 310 176 356 352 13 49 15 257 15 1533 0 1622 3 1530 -61 1650 -52 98 -151
183 -264 226 -48 18 -107 19 -1895 21 -1556 2 -1853 0 -1897 -12z m3678 -414
l29 -29 0 -1442 0 -1442 -29 -29 -29 -29 -1772 0 -1772 0 -29 29 -29 29 0 184
0 184 -52 34 c-32 22 -64 54 -83 84 l-30 49 0 171 c0 145 3 177 18 207 23 46
80 103 118 119 l29 12 0 399 c0 396 0 398 -21 404 -37 12 -101 78 -125 130
-22 45 -24 64 -24 200 0 124 4 157 19 190 25 56 67 102 112 126 l39 19 0 180
c0 188 6 220 44 238 14 7 593 11 1789 11 l1769 1 29 -29z"/>
<path d="M900 4007 l0 -133 51 -34 c69 -47 113 -123 114 -198 0 -45 -4 -57
-24 -73 -53 -43 -124 -12 -137 58 -13 72 -74 109 -132 79 -45 -23 -54 -59 -50
-190 4 -134 11 -149 94 -169 86 -21 84 -11 84 -512 l0 -430 36 -20 c72 -39
134 -142 134 -223 0 -31 -52 -82 -83 -82 -40 0 -76 36 -84 83 -13 82 -90 114
-150 63 -27 -24 -28 -27 -31 -141 -3 -77 0 -127 9 -146 13 -33 54 -59 92 -59
13 0 34 -12 48 -26 23 -25 24 -31 27 -205 l4 -179 1659 0 1659 0 0 1335 0
1335 -1660 0 -1660 0 0 -133z m1762 -111 c228 -49 425 -246 473 -472 10 -48
15 -135 15 -285 l0 -217 35 -58 c64 -105 65 -117 65 -533 0 -343 -2 -380 -19
-416 -67 -148 -371 -235 -771 -222 -311 10 -522 76 -614 190 l-31 39 -3 395
c-3 439 -3 437 63 548 l35 57 0 222 c0 252 9 306 68 426 51 105 168 221 274
273 129 64 271 82 410 53z"/>
<path d="M2388 3721 c-164 -53 -280 -189 -307 -361 -6 -36 -11 -119 -11 -186
l0 -121 86 34 c245 99 544 96 771 -7 l63 -29 0 117 c-1 222 -33 332 -127 433
-56 60 -112 94 -194 120 -79 25 -204 24 -281 0z"/>
<path d="M2400 2988 c-189 -27 -338 -115 -402 -238 -23 -45 -23 -47 -23 -406
0 -413 -6 -387 92 -424 89 -33 218 -51 408 -57 264 -8 503 29 579 88 l26 20 0
370 0 370 -24 47 c-88 172 -370 271 -656 230z m213 -284 c134 -46 204 -210
143 -339 -24 -52 -88 -118 -125 -130 -19 -6 -21 -14 -21 -74 0 -54 -4 -72 -20
-89 -28 -30 -62 -36 -98 -18 -37 19 -42 32 -42 111 0 60 -1 63 -30 75 -17 7
-50 34 -74 61 -173 193 22 487 267 403z"/>
<path d="M870 678 c0 -94 16 -136 69 -189 67 -68 84 -71 419 -67 l287 3 47 27
c49 30 83 77 152 216 l36 72 -505 0 -505 0 0 -62z"/>
<path d="M3286 648 c65 -130 91 -166 143 -196 l46 -27 285 -3 c333 -4 353 -1
420 67 52 53 70 101 70 190 l0 61 -505 0 -505 0 46 -92z"/>
</g>
</svg>
