<?xml version="1.0" standalone="no"?>
<!DOCTYPE svg PUBLIC "-//W3C//DTD SVG 20010904//EN"
 "http://www.w3.org/TR/2001/REC-SVG-20010904/DTD/svg10.dtd">
<svg version="1.0" xmlns="http://www.w3.org/2000/svg"
 width="512.000000pt" height="512.000000pt" viewBox="0 0 512.000000 512.000000"
 preserveAspectRatio="xMidYMid meet">

<g transform="translate(0.000000,512.000000) scale(0.100000,-0.100000)"
fill="#000000" stroke="none">
<path d="M0 2560 l0 -2560 2560 0 2560 0 0 2560 0 2560 -2560 0 -2560 0 0
-2560z m3706 824 c15 -11 42 -37 58 -58 l31 -38 3 -814 c2 -737 1 -817 -14
-847 -23 -45 -53 -76 -96 -98 -36 -18 -75 -19 -1128 -19 -1053 0 -1092 1
-1128 19 -43 22 -73 53 -96 98 -14 29 -16 115 -16 832 0 471 4 810 9 824 14
37 71 98 106 113 24 11 237 13 1137 11 1101 -2 1107 -2 1134 -23z"/>
<path d="M1616 3198 c34 -35 199 -211 369 -393 169 -181 325 -344 347 -362
119 -96 321 -99 446 -7 21 16 146 144 277 284 132 140 299 319 373 398 l134
142 -1003 0 -1003 0 60 -62z"/>
<path d="M1470 2404 c0 -547 3 -723 12 -732 19 -19 2141 -17 2157 2 8 9 10
209 9 731 l-3 718 -355 -379 c-195 -209 -372 -394 -394 -412 -91 -77 -207
-117 -336 -117 -99 0 -159 15 -251 61 -71 35 -105 68 -438 424 -173 184 -333
355 -357 380 l-44 45 0 -721z"/>
</g>
</svg>
