<?xml version="1.0" standalone="no"?>
<!DOCTYPE svg PUBLIC "-//W3C//DTD SVG 20010904//EN"
 "http://www.w3.org/TR/2001/REC-SVG-20010904/DTD/svg10.dtd">
<svg version="1.0" xmlns="http://www.w3.org/2000/svg"
 width="512.000000pt" height="512.000000pt" viewBox="0 0 512.000000 512.000000"
 preserveAspectRatio="xMidYMid meet">

<g transform="translate(0.000000,512.000000) scale(0.100000,-0.100000)"
fill="#000000" stroke="none">
<path d="M1461 5109 c-172 -34 -318 -182 -351 -358 -14 -74 -14 -4308 0 -4382
34 -180 179 -325 359 -359 74 -14 2108 -14 2182 0 180 34 325 179 359 359 14
74 14 4308 0 4382 -34 180 -179 325 -359 359 -66 12 -2126 12 -2190 -1z m1573
-291 c8 -13 8 -23 0 -35 -10 -17 -46 -18 -469 -21 -472 -2 -485 -1 -485 37 0
41 6 41 484 39 424 -3 460 -4 470 -20z m766 -2258 l0 -1920 -1240 0 -1240 0 0
1920 0 1920 1240 0 1240 0 0 -1920z m-985 -2125 c17 -16 25 -35 25 -60 0 -25
-8 -44 -25 -60 l-24 -25 -231 0 -231 0 -24 25 c-17 16 -25 35 -25 60 0 25 8
44 25 60 l24 25 231 0 231 0 24 -25z"/>
</g>
</svg>
