<?xml version="1.0" standalone="no"?>
<!DOCTYPE svg PUBLIC "-//W3C//DTD SVG 20010904//EN"
 "http://www.w3.org/TR/2001/REC-SVG-20010904/DTD/svg10.dtd">
<svg version="1.0" xmlns="http://www.w3.org/2000/svg"
 width="900.000000pt" height="900.000000pt" viewBox="0 0 900.000000 900.000000"
 preserveAspectRatio="xMidYMid meet">

<g transform="translate(0.000000,900.000000) scale(0.100000,-0.100000)"
fill="#000000" stroke="none">
<path d="M4250 8994 c-19 -2 -91 -9 -160 -14 -1342 -115 -2584 -856 -3337
-1990 -702 -1057 -927 -2362 -617 -3589 320 -1269 1180 -2338 2353 -2925 488
-245 978 -387 1556 -453 207 -24 700 -24 910 0 579 65 1068 208 1563 456 610
305 1140 745 1559 1291 459 599 769 1334 872 2065 39 277 46 377 45 675 -1
525 -71 961 -231 1430 -296 872 -846 1626 -1586 2176 -217 162 -408 278 -678
413 -486 243 -970 384 -1529 446 -135 15 -638 28 -720 19z m-985 -2208 c208
-102 475 -531 583 -936 32 -121 37 -297 10 -346 -18 -33 -29 -38 -238 -120
-113 -44 -207 -101 -251 -152 -82 -93 -124 -269 -89 -372 50 -148 280 -457
631 -850 378 -422 738 -755 914 -844 67 -34 121 -33 220 5 101 37 162 110 270
319 74 144 100 185 150 235 86 88 135 109 238 103 306 -18 827 -374 958 -655
53 -115 34 -239 -63 -411 -55 -98 -213 -259 -323 -331 -151 -99 -356 -182
-555 -226 -105 -23 -290 -30 -391 -16 -287 41 -678 197 -1039 416 -878 532
-1559 1320 -1838 2130 -38 111 -94 335 -119 475 -28 162 -26 598 5 770 64 372
181 605 365 728 122 81 234 112 397 109 94 -2 111 -5 165 -31z"/>
</g>
</svg>
