<?xml version="1.0" standalone="no"?>
<!DOCTYPE svg PUBLIC "-//W3C//DTD SVG 20010904//EN"
 "http://www.w3.org/TR/2001/REC-SVG-20010904/DTD/svg10.dtd">
<svg version="1.0" xmlns="http://www.w3.org/2000/svg"
 width="512.000000pt" height="512.000000pt" viewBox="0 0 512.000000 512.000000"
 preserveAspectRatio="xMidYMid meet">

<g transform="translate(0.000000,512.000000) scale(0.100000,-0.100000)"
fill="#000000" stroke="none">
<path d="M787 4064 c-301 -251 -547 -459 -547 -464 0 -6 958 -810 1082 -908
14 -11 29 2 118 108 86 102 100 124 89 134 -8 7 -138 116 -289 241 -151 125
-284 236 -295 247 -20 18 3 19 1210 15 1213 -3 1231 -3 1315 -24 255 -63 462
-178 627 -345 121 -123 181 -204 245 -333 96 -189 132 -349 132 -575 0 -226
-36 -386 -132 -575 -64 -129 -124 -210 -245 -333 -165 -167 -372 -281 -627
-345 -84 -21 -96 -21 -1537 -24 l-1453 -4 0 -160 0 -160 1463 4 c1460 3 1462
3 1562 25 373 82 687 267 916 540 181 217 295 456 351 737 32 157 32 433 0
590 -130 654 -606 1133 -1267 1277 -99 21 -114 22 -1339 27 l-1238 6 288 240
c158 132 297 247 308 256 19 16 16 20 -83 138 -56 66 -103 121 -104 121 -2 0
-249 -205 -550 -456z"/>
</g>
</svg>
